HIERARCHY
ROOT Elbow
{
	OFFSET	0.00	0.00	0.00
	CHANNELS 6 Xposition Yposition Zposition Zrotation Xrotation Yrotation
	JOINT L_Wrist
	{
		OFFSET	 0.208349	 0.000000	 0.000000
		CHANNELS 3 Zrotation Xrotation Yrotation
		JOINT L_index_Proximal
		{
			OFFSET	 0.093499	 0.010637	-0.002084
			CHANNELS 3 Zrotation Xrotation Yrotation
			JOINT L_index_b
			{
				OFFSET	 0.033152	 0.000000	 0.000000
				CHANNELS 3 Zrotation Xrotation Yrotation
				JOINT L_index_c
				{
					OFFSET	 0.018651	 0.000000	 0.000000
					CHANNELS 3 Zrotation Xrotation Yrotation
					End Site
					{
						OFFSET	 0.018651	 0.000000	 0.000000
					}
				}
			}
		}
		JOINT L_middle_Proximal
		{
			OFFSET	 0.090632	-0.006115	-0.003750
			CHANNELS 3 Zrotation Xrotation Yrotation
			JOINT L_middle_b
			{
				OFFSET	 0.037194	 0.000000	 0.000000
				CHANNELS 3 Zrotation Xrotation Yrotation
				JOINT L_middle_c
				{
					OFFSET	 0.021943	 0.000000	 0.000000
					CHANNELS 3 Zrotation Xrotation Yrotation
					End Site
					{
						OFFSET	 0.021943	 0.000000	 0.000000
					}
				}
			}
		}
		JOINT L_pinky_Proximal
		{
			OFFSET	 0.074015	-0.035449	-0.000417
			CHANNELS 3 Zrotation Xrotation Yrotation
			JOINT L_pinky_b
			{
				OFFSET	 0.027285	 0.000000	 0.000000
				CHANNELS 3 Zrotation Xrotation Yrotation
				JOINT L_pinky_c
				{
					OFFSET	 0.015093	 0.000000	 0.000000
					CHANNELS 3 Zrotation Xrotation Yrotation
					End Site
					{
						OFFSET	 0.015093	 0.000000	 0.000000
					}
				}
			}
		}
		JOINT L_ring_Proximal
		{
			OFFSET	 0.082801	-0.021859	-0.003750
			CHANNELS 3 Zrotation Xrotation Yrotation
			JOINT L_ring_b
			{
				OFFSET	 0.034478	 0.000000	 0.000000
				CHANNELS 3 Zrotation Xrotation Yrotation
				JOINT L_ring_c
				{
					OFFSET	 0.021377	 0.000000	 0.000000
					CHANNELS 3 Zrotation Xrotation Yrotation
					End Site
					{
						OFFSET	 0.021377	 0.000000	 0.000000
					}
				}
			}
		}
		JOINT L_thumb_Proximal
		{
			OFFSET	 0.030306	 0.018528	 0.004584
			CHANNELS 3 Zrotation Xrotation Yrotation
			JOINT L_thumb_a
			{
				OFFSET	 0.038520	 0.000000	 0.000000
				CHANNELS 3 Zrotation Xrotation Yrotation
				JOINT L_thumb_b
				{
					OFFSET	 0.026310	 0.000000	 0.000000
					CHANNELS 3 Zrotation Xrotation Yrotation
					End Site
					{
						OFFSET	 0.026310	 0.000000	 0.000000
					}
				}
			}
		}
	}
}
MOTION
Frames:    12
Frame Time: 0.01666667
-0.182821	-0.227531	 0.694147	 47.317580	 55.386820	-156.575700	 5.285193	 5.461606	 32.836640	 5.937935	-3.534001	-50.233880	 3.573089	-1.120658	-34.817090	-1.956217	 0.342381	-19.852700	-7.645932	-9.525362	-45.797820	 0.846834	-0.405177	-51.138260	-0.377144	 0.140210	-40.785810	-29.650040	-18.353530	-56.290510	-0.412283	 0.244627	-61.367700	 1.744618	-1.032972	-61.256400	-18.717980	-11.489980	-62.370180	-0.836098	 0.549691	-66.644910	 1.435369	-0.692098	-51.482330	 65.668370	 43.228980	-64.654570	 2.512798	-0.228811	-10.403840	-3.361023	 0.645458	-21.735300
-0.182617	-0.227633	 0.694096	 47.300640	 55.392500	-156.552900	 5.255681	 5.462507	 32.842840	 5.941435	-3.531830	-50.176360	 3.550116	-1.115001	-34.862940	-1.960916	 0.343872	-19.891100	-7.636858	-9.531743	-45.882640	 0.834082	-0.401039	-51.356460	-0.335900	 0.125649	-41.017200	-29.629310	-18.366050	-56.270400	-0.407463	 0.241764	-61.364240	 1.746323	-1.034442	-61.278690	-18.681820	-11.515120	-62.261750	-0.780831	 0.512349	-66.542580	 1.447275	-0.699386	-51.582180	 65.624370	 43.248180	-64.669600	 2.491030	-0.227180	-10.420510	-3.403562	 0.653409	-21.728810
-0.182483	-0.227703	 0.694035	 47.286400	 55.397880	-156.533000	 5.234352	 5.462965	 32.845970	 5.946572	-3.531887	-50.136990	 3.550558	-1.114928	-34.856690	-1.939371	 0.340598	-19.920060	-7.636969	-9.532658	-45.927830	 0.848654	-0.408507	-51.408850	-0.334046	 0.125074	-41.053180	-29.610930	-18.376870	-56.263740	-0.394938	 0.234361	-61.369390	 1.755719	-1.040270	-61.291330	-18.649590	-11.537520	-62.181830	-0.761015	 0.499020	-66.506940	 1.465588	-0.708969	-51.627930	 65.608540	 43.247910	-64.688900	 2.469614	-0.225447	-10.430050	-3.437178	 0.660671	-21.754230
-0.182410	-0.227721	 0.694008	 47.275270	 55.399350	-156.520700	 5.211294	 5.463540	 32.849940	 5.985029	-3.551557	-50.109730	 3.546881	-1.115188	-34.898480	-1.924875	 0.338575	-19.950430	-7.604420	-9.551630	-46.040840	 0.844379	-0.406968	-51.464960	-0.354347	 0.133028	-41.153570	-29.595550	-18.385940	-56.256730	-0.383666	 0.227697	-61.376270	 1.768931	-1.048143	-61.293240	-18.630620	-11.550710	-62.165470	-0.762533	 0.499985	-66.504990	 1.477230	-0.714904	-51.647120	 65.636280	 43.239530	-64.672240	 2.437299	-0.222817	-10.445310	-3.498659	 0.677003	-21.896520
-0.182448	-0.227663	 0.693975	 47.253170	 55.417560	-156.496600	 5.200264	 5.463493	 32.849550	 5.987773	-3.552706	-50.104250	 3.548957	-1.116042	-34.904340	-1.923400	 0.338366	-19.952800	-7.598602	-9.556041	-46.107850	 0.835091	-0.402966	-51.517220	-0.350095	 0.131625	-41.207720	-29.592030	-18.387960	-56.257710	-0.381103	 0.226170	-61.372660	 1.771655	-1.049909	-61.300670	-18.626900	-11.553280	-62.151780	-0.763927	 0.500755	-66.489120	 1.482735	-0.717884	-51.666740	 65.647320	 43.233700	-64.670410	 2.421024	-0.221524	-10.454320	-3.526173	 0.683955	-21.947190
-0.182364	-0.227707	 0.693911	 47.240030	 55.418680	-156.481900	 5.171426	 5.461838	 32.838270	 5.994137	-3.556214	-50.103220	 3.570534	-1.121086	-34.853150	-1.913580	 0.336141	-19.924130	-7.583957	-9.564046	-46.131720	 0.865938	-0.417565	-51.486400	-0.366406	 0.137611	-41.167750	-29.576190	-18.397380	-56.248320	-0.359326	 0.213080	-61.336550	 1.785621	-1.058260	-61.304190	-18.617080	-11.560040	-62.112430	-0.758695	 0.496786	-66.431680	 1.478295	-0.716026	-51.685110	 65.635550	 43.250310	-64.652260	 2.417185	-0.220799	-10.436590	-3.526697	 0.682631	-21.902670
-0.182327	-0.227707	 0.693875	 47.236780	 55.411750	-156.479200	 5.152570	 5.461931	 32.838950	 5.992994	-3.557457	-50.129330	 3.585816	-1.123299	-34.777970	-1.924465	 0.337376	-19.884830	-7.584828	-9.564100	-46.154370	 0.863613	-0.415808	-51.419120	-0.411961	 0.154463	-41.107740	-29.567740	-18.402110	-56.253780	-0.353698	 0.209646	-61.311590	 1.787034	-1.059060	-61.302560	-18.616980	-11.560130	-62.119580	-0.757276	 0.495637	-66.408910	 1.471495	-0.712652	-51.680260	 65.627300	 43.249600	-64.663450	 2.415298	-0.220247	-10.418410	-3.528058	 0.681386	-21.855460
-0.182264	-0.227786	 0.693806	 47.207770	 55.422740	-156.450300	 5.133448	 5.461811	 32.838060	 6.000733	-3.561822	-50.129190	 3.594657	-1.123989	-34.717640	-1.909430	 0.334065	-19.846010	-7.583981	-9.564606	-46.157990	 0.844384	-0.405911	-51.347310	-0.442218	 0.165405	-41.014000	-29.566070	-18.403570	-56.234450	-0.371630	 0.220134	-61.282570	 1.766797	-1.046931	-61.295720	-18.631960	-11.549680	-62.118760	-0.792155	 0.518317	-66.393520	 1.438554	-0.696169	-51.646800	 65.616170	 43.252630	-64.670730	 2.406883	-0.219820	-10.435010	-3.518713	 0.679878	-21.865450
-0.182191	-0.227788	 0.693763	 47.220900	 55.403750	-156.458300	 5.126166	 5.460312	 32.827920	 5.994246	-3.556885	-50.111720	 3.574496	-1.117037	-34.698660	-1.916996	 0.335487	-19.851000	-7.583465	-9.564239	-46.129130	 0.831900	-0.399614	-51.314950	-0.452498	 0.169209	-41.006030	-29.560210	-18.407490	-56.214130	-0.375740	 0.222538	-61.271280	 1.763817	-1.045093	-61.292400	-18.628040	-11.552370	-62.100690	-0.800756	 0.523894	-66.388860	 1.431406	-0.692710	-51.646420	 65.591150	 43.278150	-64.651020	 2.416905	-0.220788	-10.437590	-3.498600	 0.675289	-21.842860
-0.181994	-0.227857	 0.693650	 47.248090	 55.369500	-156.472300	 5.090355	 5.456997	 32.805390	 5.947031	-3.525788	-50.049140	 3.514301	-1.098995	-34.721710	-1.921570	 0.337528	-19.923440	-7.578089	-9.565289	-46.051620	 0.807194	-0.387270	-51.260150	-0.491624	 0.183595	-40.955240	-29.552820	-18.411860	-56.208910	-0.355245	 0.210298	-61.253440	 1.782590	-1.055557	-61.261150	-18.628900	-11.551700	-62.073240	-0.788908	 0.515998	-66.373650	 1.434107	-0.693522	-51.614830	 65.522640	 43.335500	-64.621120	 2.403031	-0.219821	-10.451490	-3.511778	 0.676531	-21.802120
-0.182036	-0.227788	 0.693638	 47.264370	 55.347420	-156.477700	 5.078504	 5.455759	 32.796900	 5.934035	-3.517391	-50.033700	 3.513434	-1.099237	-34.737180	-1.924213	 0.338180	-19.933810	-7.580390	-9.563389	-46.018220	 0.809256	-0.388214	-51.254880	-0.482766	 0.180274	-40.954090	-29.552040	-18.412270	-56.211750	-0.342642	 0.202840	-61.248890	 1.799219	-1.065336	-61.257380	-18.627450	-11.552680	-62.052320	-0.776951	 0.508037	-66.358930	 1.443674	-0.698070	-51.608860	 65.504490	 43.352050	-64.610440	 2.406958	-0.220018	-10.444030	-3.521564	 0.678282	-21.797580
-0.181905	-0.227919	 0.693695	 47.253850	 55.331170	-156.458000	 5.078501	 5.455756	 32.796890	 5.934040	-3.517387	-50.033690	 3.513429	-1.099235	-34.737160	-1.924201	 0.338180	-19.933840	-7.580387	-9.563391	-46.018210	 0.809252	-0.388211	-51.254860	-0.482763	 0.180279	-40.954100	-29.552030	-18.412270	-56.211720	-0.342642	 0.202838	-61.248900	 1.799233	-1.065336	-61.257370	-18.627460	-11.552690	-62.052310	-0.776956	 0.508037	-66.358950	 1.443675	-0.698063	-51.608860	 65.504520	 43.352050	-64.610460	 2.406954	-0.220025	-10.444020	-3.521566	 0.678273	-21.797580
